# This file uses centimeters as units for non-parametric coordinates.

mtllib PorygonBody.mtl
g default
v 13.322804 -15.749575 -122.006348
v 16.349171 -15.955323 -90.218758
v -47.887920 -15.786494 -90.155273
v -45.112377 -15.595802 -121.948853
v 16.349171 -15.955323 -90.218758
v 13.322804 -15.749575 -122.006348
v 10.759328 64.473793 -89.721069
v 13.322804 -15.749575 -122.006348
v -45.112377 -15.595802 -121.948853
v -11.517803 174.641861 -240.965210
v -20.220743 174.664734 -240.956421
v -11.517803 174.641861 -240.965210
v -11.470561 179.587570 -232.264160
v 13.322804 -15.749575 -122.006348
v 10.759328 64.473793 -89.721069
v 16.349171 -15.955323 -90.218758
v 10.759328 64.473793 -89.721069
v -47.887920 -15.786494 -90.155273
v -42.287823 64.613266 -89.668709
v -20.220743 174.664734 -240.956421
v -45.112377 -15.595802 -121.948853
v -20.173321 179.610519 -232.255310
v -42.287823 64.613266 -89.668709
v -11.517803 174.641861 -240.965210
v -20.220743 174.664734 -240.956421
v -11.470561 179.587570 -232.264160
v -20.173321 179.610519 -232.255310
v -47.887920 -15.786494 -90.155273
v -42.287823 64.613266 -89.668709
v -45.112377 -15.595802 -121.948853
v -11.470561 179.587570 -232.264160
v -20.173321 179.610519 -232.255310
v 10.759328 64.473793 -89.721069
v -42.287823 64.613266 -89.668709
v 54.485218 -18.399502 -86.645386
v 83.676750 50.271889 -86.253426
v 55.095203 -19.362215 67.764893
v 84.557365 48.881908 136.691895
v 84.244072 49.376156 57.422359
v 83.676750 50.271889 -86.253426
v 54.485218 -18.399502 -86.645386
v -111.106148 50.784058 -86.061043
v -82.277138 -18.039879 -86.510254
v -81.136452 100.287201 -85.787109
v 53.968311 99.931984 -85.920532
v 53.968311 99.931984 -85.920532
v 66.582146 97.705750 65.580200
v 83.676750 50.271889 -86.253426
v 37.359303 154.365631 79.167358
v 19.359119 175.196396 20.270382
v 84.244072 49.376156 57.422359
v 84.557365 48.881908 136.691895
v -82.277138 -18.039879 -86.510254
v 54.485218 -18.399502 -86.645386
v -81.667183 -19.002682 67.900024
v 55.095203 -19.362215 67.764893
v -82.277138 -18.039879 -86.510254
v -81.667183 -19.002682 67.900024
v -111.106148 50.784058 -86.061043
v -110.225716 49.394180 136.884277
v -110.538643 49.888306 57.614742
v -81.136452 100.287201 -85.787109
v -45.292126 175.366470 20.334347
v 53.968311 99.931984 -85.920532
v 19.359119 175.196396 20.270382
v 53.968311 99.931984 -85.920532
v -45.292126 175.366470 20.334347
v -81.136452 100.287201 -85.787109
v -111.106148 50.784058 -86.061043
v -92.559669 98.124268 65.737061
v -110.538643 49.888306 57.614742
v -62.933453 154.629303 79.266357
v -45.292126 175.366470 20.334347
v -110.225716 49.394180 136.884277
v 19.359119 175.196396 20.270382
v -45.292126 175.366470 20.334347
v 37.359303 154.365631 79.167358
v -62.933453 154.629303 79.266357
v 37.359303 154.365631 79.167358
v -45.292126 175.366470 20.334347
v -110.225716 49.394180 136.884277
v 84.557365 48.881908 136.691895
v 55.095203 -19.362215 67.764893
v -81.667183 -19.002682 67.900024
v 84.557365 48.881908 136.691895
v 37.359303 154.365631 79.167358
v 66.582146 97.705750 65.580200
v 84.557365 48.881908 136.691895
v -110.225716 49.394180 136.884277
v -62.933453 154.629303 79.266357
v 37.359303 154.365631 79.167358
v -92.559669 98.124268 65.737061
v -62.933453 154.629303 79.266357
v -110.225716 49.394180 136.884277
vt 0.805790 0.700000
vt 0.805790 0.619672
vt 0.805790 0.700000
vt 0.812285 0.619672
vt 0.805790 0.700000
vt 0.805790 0.619672
vt 0.812285 0.619672
vt 0.805790 0.700000
vt 0.812285 0.619672
vt 0.805790 0.700000
vt 0.812285 0.619672
vt 0.805790 0.700000
vt 0.812285 0.619672
vt 0.805790 0.700000
vt 0.812285 0.619672
vt 0.805790 0.700000
vt 0.805790 0.619672
vt 0.812285 0.619672
vt 0.805790 0.700000
vt 0.805790 0.619672
vt 0.812285 0.619672
vt 0.805790 0.700000
vt 0.812285 0.619672
vt 0.805790 0.700000
vt 0.812285 0.619672
vt 0.805790 0.700000
vt 0.812285 0.619672
vt 0.805790 0.700000
vt 0.805790 0.619672
vt 0.805790 0.700000
vt 0.805790 0.619672
vt 0.812285 0.619672
vt 0.805790 0.700000
vt 0.812285 0.619672
vt 0.805790 0.700000
vt 0.812285 0.619672
vt 0.513293 0.556878
vt 0.507573 0.588028
vt 0.507573 0.556878
vt 0.513293 0.556878
vt 0.507573 0.588028
vt 0.507573 0.556878
vt 0.513293 0.556878
vt 0.507573 0.588028
vt 0.513293 0.556878
vt 0.507573 0.588028
vt 0.507573 0.588028
vt 0.507573 0.556878
vt 0.507573 0.588028
vt 0.507573 0.556878
vt 0.513293 0.556878
vt 0.507573 0.588028
vt 0.513293 0.556878
vt 0.507573 0.556878
vt 0.513293 0.556878
vt 0.507573 0.556878
vt 0.513293 0.556878
vt 0.507573 0.588028
vt 0.507573 0.556878
vt 0.513293 0.556878
vt 0.513293 0.556878
vt 0.507573 0.588028
vt 0.513293 0.556878
vt 0.507573 0.588028
vt 0.513293 0.556878
vt 0.507573 0.588028
vt 0.507573 0.588028
vt 0.507573 0.556878
vt 0.507573 0.588028
vt 0.507573 0.556878
vt 0.513293 0.556878
vt 0.507573 0.588028
vt 0.507573 0.556878
vt 0.513293 0.556878
vt 0.507573 0.588028
vt 0.507573 0.556878
vt 0.513293 0.556878
vt 0.507573 0.588028
vt 0.507573 0.556878
vt 0.507573 0.588028
vt 0.513293 0.556878
vt 0.507573 0.588028
vt 0.507573 0.556878
vt 0.507573 0.588028
vt 0.507573 0.556878
vt 0.513293 0.556878
vt 0.507573 0.588028
vt 0.507573 0.556878
vt 0.513293 0.556878
vt 0.507573 0.588028
vt 0.507573 0.556878
vt 0.513293 0.556878
vt 0.891089 0.478571
vt 0.877621 0.522050
vt 0.891089 0.478571
vt 0.877621 0.522050
vt 0.877621 0.522050
vt 0.877621 0.478571
vt 0.891089 0.478571
vt 0.891089 0.478571
vt 0.877621 0.522050
vt 0.891089 0.478571
vt 0.877621 0.522050
vt 0.877621 0.522050
vt 0.877621 0.478571
vt 0.891089 0.478571
vn -0.002636 -0.999977 -0.006225
vn -0.002636 -0.999977 -0.006225
vn -0.002636 -0.999977 -0.006225
vn -0.002638 -0.999977 -0.006228
vn 0.993126 0.069605 -0.094101
vn 0.993126 0.069605 -0.094101
vn 0.993126 0.069605 -0.094101
vn -0.002240 -0.530091 -0.847938
vn -0.002229 -0.530092 -0.847937
vn -0.002240 -0.530091 -0.847938
vn -0.002250 -0.530090 -0.847939
vn 0.993570 0.082105 -0.077961
vn 0.993934 0.093206 -0.058375
vn 0.993570 0.082105 -0.077961
vn 0.992702 0.070962 -0.097507
vn 0.000972 -0.006120 0.999981
vn 0.000972 -0.006120 0.999981
vn 0.000972 -0.006120 0.999981
vn 0.000971 -0.006119 0.999981
vn 0.000972 -0.006120 0.999981
vn 0.000972 -0.006120 0.999981
vn -0.993649 0.085827 -0.072767
vn -0.993861 0.098422 -0.050527
vn -0.993649 0.085827 -0.072767
vn -0.992788 0.073177 -0.094959
vn 0.001788 0.869367 -0.494163
vn 0.001786 0.869368 -0.494162
vn 0.001788 0.869367 -0.494163
vn 0.001789 0.869366 -0.494165
vn -0.993821 0.069745 -0.086341
vn -0.993821 0.069745 -0.086341
vn -0.993821 0.069745 -0.086341
vn 0.002678 0.778188 0.628026
vn 0.002690 0.778189 0.628024
vn 0.002678 0.778188 0.628026
vn 0.002666 0.778187 0.628027
vn 0.920297 -0.391174 -0.006074
vn 0.920297 -0.391174 -0.006074
vn 0.920297 -0.391174 -0.006074
vn 0.920297 -0.391173 -0.006074
vn 0.172499 0.984995 0.005410
vn 0.172499 0.984995 0.005410
vn 0.172499 0.984995 0.005410
vn -0.000972 0.006122 -0.999981
vn -0.000972 0.006120 -0.999981
vn -0.000972 0.006120 -0.999981
vn -0.000972 0.006121 -0.999981
vn -0.000971 0.006122 -0.999981
vn -0.000971 0.006122 -0.999981
vn -0.000972 0.006122 -0.999981
vn -0.000971 0.006122 -0.999981
vn 0.939159 0.343478 -0.001569
vn 0.902143 0.430187 -0.032823
vn 0.864635 0.497409 -0.070639
vn 0.868728 0.489720 -0.074073
vn 0.907341 0.419063 -0.033453
vn 0.939159 0.343478 -0.001570
vn 0.856728 0.509254 -0.081721
vn 0.868728 0.489720 -0.074073
vn 0.864635 0.497409 -0.070639
vn -0.002635 -0.999977 -0.006225
vn -0.002636 -0.999977 -0.006225
vn -0.002635 -0.999977 -0.006225
vn -0.002635 -0.999977 -0.006224
vn -0.922346 -0.386362 0.001234
vn -0.922347 -0.386361 0.001234
vn -0.922346 -0.386362 0.001234
vn -0.922346 -0.386362 0.001234
vn 0.420168 0.907437 0.004100
vn 0.420168 0.907437 0.004100
vn 0.420168 0.907437 0.004100
vn 0.001575 0.816099 -0.577909
vn 0.001575 0.816099 -0.577909
vn 0.001575 0.816099 -0.577909
vn 0.001575 0.816099 -0.577909
vn 0.001575 0.816099 -0.577909
vn 0.001575 0.816099 -0.577909
vn -0.905334 0.423886 -0.026274
vn -0.866608 0.494442 -0.067216
vn -0.862451 0.502101 -0.063812
vn -0.900072 0.434983 -0.025686
vn -0.937334 0.348383 0.005873
vn -0.937334 0.348383 0.005872
vn -0.854547 0.513936 -0.074964
vn -0.862451 0.502101 -0.063812
vn -0.866608 0.494442 -0.067216
vn 0.002810 0.943037 0.332676
vn 0.002810 0.943037 0.332676
vn 0.002810 0.943037 0.332676
vn 0.002808 0.943036 0.332679
vn 0.002808 0.943036 0.332679
vn 0.002808 0.943036 0.332679
vn -0.001173 -0.710366 0.703831
vn -0.001173 -0.710367 0.703831
vn -0.001173 -0.710366 0.703831
vn -0.001172 -0.710366 0.703832
vn 0.893538 0.442206 0.077746
vn 0.893538 0.442206 0.077746
vn 0.893538 0.442206 0.077746
vn 0.002127 0.479508 0.877535
vn 0.002128 0.479508 0.877535
vn 0.002127 0.479508 0.877535
vn 0.002127 0.479507 0.877535
vn -0.890665 0.446684 0.084788
vn -0.890665 0.446684 0.084788
vn -0.890665 0.446684 0.084788
s off
g polySurface3
usemtl porygon:porygon
f 1/1/1 2/2/2 3/4/3 4/3/4
f 5/5/5 6/6/6 7/7/7
f 10/9/8 8/8/9 9/11/10 11/10/11
f 14/13/12 12/12/13 13/15/14 15/14/15
f 16/16/16 17/17/17 18/18/18
f 19/19/19 18/20/20 17/21/21
f 22/23/22 20/22/23 21/25/24 23/24/25
f 26/27/26 24/26/27 25/28/28 27/29/29
f 28/30/30 29/31/31 30/32/32
f 33/34/33 31/33/34 32/36/35 34/35/36
f 37/37/37 35/38/38 36/39/39 38/40/40
f 36/41/41 39/42/42 38/43/43
f 40/44/44 41/45/45 43/46/46 42/47/47 44/48/48
f 45/49/49 40/50/50 44/51/51
f 51/52/52 48/53/53 46/54/54 49/55/55 47/56/56 52/57/57
f 50/58/58 49/59/59 46/60/60
f 55/61/61 53/62/62 54/63/63 56/64/64
f 59/65/65 57/66/66 58/67/67 60/68/68
f 60/69/69 61/70/70 59/71/71
f 62/72/72 63/73/73 64/74/74
f 65/75/75 66/76/76 67/77/77
f 70/78/78 72/79/79 68/80/80 69/81/81 71/82/82 74/83/83
f 73/84/84 68/85/85 72/86/86
f 75/87/87 76/88/88 77/89/89
f 78/90/90 79/91/91 80/92/92
f 83/93/93 82/94/94 81/95/95 84/96/96
f 86/97/97 85/98/98 87/99/99
f 90/100/100 89/101/101 88/102/102 91/103/103
f 93/104/104 92/105/105 94/106/106
